<svg xmlns="http://www.w3.org/2000/svg" xmlns:xlink="http://www.w3.org/1999/xlink" viewBox="0,0,256,256" width="26px" height="26px"><g fill="#db0000" fill-rule="nonzero" stroke="none" stroke-width="1" stroke-linecap="butt" stroke-linejoin="miter" stroke-miterlimit="10" stroke-dasharray="" stroke-dashoffset="0" font-family="none" font-weight="none" font-size="none" text-anchor="none" style="mix-blend-mode: normal"><g transform="scale(9.84615,9.84615)"><path d="M13.5,0c-6.89844,0 -12.5,5.60156 -12.5,12.5c0,6.89844 5.60156,12.5 12.5,12.5c6.89844,0 12.5,-5.60156 12.5,-12.5c0,-6.89844 -5.60156,-12.5 -12.5,-12.5zM13.5,1.8125c5.89844,0 10.6875,4.78906 10.6875,10.6875c0,5.89844 -4.78906,10.6875 -10.6875,10.6875c-5.89844,0 -10.6875,-4.78906 -10.6875,-10.6875c0,-5.89844 4.78906,-10.6875 10.6875,-10.6875zM11.90625,7l-5.5,5.5l5.5,5.5h2.78125l-4,-4h9.3125v-3h-9.3125l4,-4z"></path></g></g></svg>