<svg xmlns="http://www.w3.org/2000/svg" xmlns:xlink="http://www.w3.org/1999/xlink" viewBox="0,0,256,256" width="60px" height="60px"><g fill="#db0000" fill-rule="nonzero" stroke="none" stroke-width="1" stroke-linecap="butt" stroke-linejoin="miter" stroke-miterlimit="10" stroke-dasharray="" stroke-dashoffset="0" font-family="none" font-weight="none" font-size="none" text-anchor="none" style="mix-blend-mode: normal"><g transform="scale(0.53333,0.53333)"><path d="M234.067,196.579v43.438c0,4.411 -3.589,8 -8,8h-97.176c-4.411,0 -8,-3.589 -8,-8v-43.438c0,-4.411 3.589,-8 8,-8h97.176c4.411,0 8,3.589 8,8zM426.99,312.831c-52.556,-0.352 -321.402,-0.373 -373.978,-0.006c-4.749,0.033 -8.472,-4.054 -8.009,-8.78l15.357,-156.635c1.66,-16.88 15.69,-29.6 32.65,-29.6h219.08v-30.51h-47.29c-18.115,0 -32.8,-14.685 -32.8,-32.8v-21.7c0,-18.115 14.685,-32.8 32.8,-32.8h110.58c18.115,0 32.8,14.685 32.8,32.8v21.7c0,18.115 -14.685,32.8 -32.8,32.8h-47.29v30.51h58.9c16.96,0 30.99,12.72 32.65,29.6l15.357,156.641c0.464,4.725 -3.259,8.812 -8.007,8.78zM250.067,196.579c0,-13.233 -10.766,-24 -24,-24h-97.176c-13.234,0 -24,10.767 -24,24v43.438c0,13.233 10.766,24 24,24h97.176c13.234,0 24,-10.767 24,-24zM295.537,274.619c0,-4.418 -3.582,-8 -8,-8c-4.418,0 -8,3.582 -8,8v2.066c0,4.418 3.582,8 8,8c4.418,0 8,-3.582 8,-8zM295.537,233.283c0,-4.418 -3.582,-8 -8,-8c-4.418,0 -8,3.582 -8,8v2.066c0,4.418 3.582,8 8,8c4.418,0 8,-3.582 8,-8zM295.537,191.946c0,-4.418 -3.582,-8 -8,-8c-4.418,0 -8,3.582 -8,8v2.067c0,4.418 3.582,8 8,8c4.418,0 8,-3.582 8,-8zM336.873,274.619c0,-4.418 -3.582,-8 -8,-8c-4.418,0 -8,3.582 -8,8v2.066c0,4.418 3.582,8 8,8c4.418,0 8,-3.582 8,-8zM336.873,233.283c0,-4.418 -3.582,-8 -8,-8c-4.418,0 -8,3.582 -8,8v2.066c0,4.418 3.582,8 8,8c4.418,0 8,-3.582 8,-8zM336.873,191.946c0,-4.418 -3.582,-8 -8,-8c-4.418,0 -8,3.582 -8,8v2.067c0,4.418 3.582,8 8,8c4.418,0 8,-3.582 8,-8zM378.209,274.619c0,-4.418 -3.582,-8 -8,-8c-4.418,0 -8,3.582 -8,8v2.066c0,4.418 3.582,8 8,8c4.418,0 8,-3.582 8,-8zM378.209,233.283c0,-4.418 -3.582,-8 -8,-8c-4.418,0 -8,3.582 -8,8v2.066c0,4.418 3.582,8 8,8c4.418,0 8,-3.582 8,-8zM378.209,191.946c0,-4.418 -3.582,-8 -8,-8c-4.418,0 -8,3.582 -8,8v2.067c0,4.418 3.582,8 8,8c4.418,0 8,-3.582 8,-8zM462.95,361.43v85.77c0,18.09 -14.72,32.8 -32.8,32.8h-380.3c-18.08,0 -32.8,-14.71 -32.8,-32.8v-85.77c0,-18.09 14.72,-32.81 32.8,-32.81h380.3c18.08,0 32.8,14.72 32.8,32.81zM271.769,403.795c0,-4.418 -3.582,-8 -8,-8h-103.341c-4.418,0 -8,3.582 -8,8c0,4.418 3.582,8 8,8h103.341c4.418,0 8,-3.582 8,-8zM327.572,403.795c0,-4.418 -3.582,-8 -8,-8h-12.056c-4.418,0 -8,3.582 -8,8c0,4.418 3.582,8 8,8h12.056c4.419,0 8,-3.582 8,-8z"></path></g></g></svg>